<svg version="1.1" id="Layer_1" xmlns="http://www.w3.org/2000/svg" x="0" y="0" viewBox="0 0 1538.9 246.5" xml:space="preserve"><style>.st0{fill:#ff2d3c}.st1{fill:#13122b}</style><g id="Layer_1-2"><path class="st0" d="M0 0h32.2v32.3H0zM193.6 0H64.5v32.2h96.8v25.1L121 80.6c-25 14.4-40.3 41-40.3 69.9V179l-21.6-12.5c-16.6-9.6-26.9-27.3-26.9-46.5V64.6H0V123c0 28.8 15.4 55.5 40.3 69.9l40.4 23.3 16.8 9.7L113 217l40.3-23.3c25-14.4 40.3-41 40.3-69.9V0zm-32.2 120.8c0 19.2-10.3 37-26.9 46.6L113 179.8v-26.2c0-19.2 10.2-37 26.9-46.6l21.5-12.4v26.2z"/><path class="st1" d="M712.7 32.4V129h-27.4v-11.3c-6 6.9-15 11.1-27.2 11.1-23.9 0-43.7-21-43.7-48.2s19.8-48.2 43.7-48.2c12.2 0 21.2 4.2 27.2 11.1V32.4h27.4zm-27.4 48.3c0-13.7-9.1-22.3-21.8-22.3s-21.7 8.6-21.7 22.3 9.1 22.3 21.7 22.3 21.8-8.6 21.8-22.3zM606.3 32.4v31.3c-11.4-1.8-27.6 2.8-27.6 21V129H551V32.4h27.7v18.2c3.6-12.3 16-18.2 27.6-18.2zM1305.7 129.1L1277.4 90v39.1h-26.5V.2h26.5v70.9l26.5-38.7h30.9l-32.2 46.8 33 49.8h-29.9zM1431.3 69v60.1h-26.5V72.9c0-11-6.9-16.1-15.4-16.1-9.7 0-16.4 5.7-16.4 18.2v54.1h-26.5V.2h26.6v43c4.8-6.5 13.6-10.8 25.3-10.8 17.7 0 32.9 12.8 32.9 36.6zM1442 80.7c0-27.2 21.6-48.2 48.4-48.2s48.4 21 48.4 48.2-21.6 48.2-48.4 48.2-48.4-21-48.4-48.2zm69.4 0c0-13-9.1-21.6-21-21.6s-21 8.6-21 21.6 9.1 21.6 21 21.6 21.1-8.6 21-21.6z"/><path id="Shape" class="st1" d="M1136.9 64.4c0 36.5-27.1 64.4-62.6 64.4h-48.6V0h48.6c35.5 0 62.6 28 62.6 64.4zm-27.5 0c0-22.1-14-36.6-34.3-36.6H1053v73.3h22.1c20.3 0 34.3-14.6 34.3-36.7z"/><path id="Shape-2" class="st1" d="M1195.9 104.4c4.9.1 9.7-1.3 13.9-3.8l25.7 9.5c-8.9 12.5-22.5 18.9-39.9 18.9-31.2 0-50.7-21-50.7-48.3s19.8-48.3 48.7-48.3c26.7 0 46.5 20.7 46.5 48.3 0 3.7-.3 7.4-1.1 11h-65c3.4 9.5 11.8 12.7 21.9 12.7zm16.8-33.3c-2.9-10.6-11.2-14.5-19.4-14.5-10.4 0-17.4 5.2-20 14.5h39.4z"/><path id="Shape-3" class="st1" d="M970.7 104.5c4.9.1 9.7-1.3 13.9-3.8l25.7 9.5c-8.9 12.5-22.5 18.9-39.9 18.9-31.3 0-50.7-21-50.7-48.3s19.8-48.3 48.7-48.3c26.7 0 46.5 20.7 46.5 48.3 0 3.7-.4 7.4-1.1 11h-64.9c3.3 9.5 11.7 12.7 21.8 12.7zm16.8-33.3c-2.9-10.6-11.2-14.5-19.4-14.5-10.4 0-17.4 5.2-20 14.5h39.4z"/><path class="st1" d="M255.3.2v128.9h-29.4V.2h29.4zM356.5 71.4v57.7h-28.2V75.5c0-11.7-7.3-17.1-16.4-17.1-10.3 0-17.5 6-17.5 19.4v51.3h-28.2V32.4h28.2v11.5c5.1-7 14.5-11.5 26.9-11.5 19 0 35.2 13.6 35.2 39zM813.7 71.4v57.7h-28.2V75.5c0-11.7-7.3-17.1-16.4-17.1-10.3 0-17.5 6-17.5 19.4v51.3h-28.2V32.4h28.2v11.5c5.1-7 14.5-11.5 26.9-11.5 19 0 35.2 13.6 35.2 39zM442 99.1c0 21-18.3 30-38.1 30-18.3 0-32.2-7-39.4-21.8l23.8-13.6c2.4 7 7.5 10.8 15.6 10.8 6.6 0 9.9-2 9.9-5.7 0-10.1-45-4.8-45-36.4 0-20 16.8-30 35.9-30 14.8 0 28 6.6 35.7 19.6l-23.5 12.6c-2.6-4.8-6.2-8.1-12.3-8.1-4.8 0-7.7 1.8-7.7 5.1 0 10.6 45.1 3.6 45.1 37.5zM540.3 32.4V129h-28.2v-11.5c-5.1 7-14.5 11.5-26.9 11.5-19 0-35.2-13.5-35.2-38.9V32.4h28.2V86c0 11.7 7.3 17.1 16.4 17.1 10.4 0 17.5-6 17.5-19.4V32.4h28.2zM821.7 80.8c0-27.3 20.7-48.3 48.5-48.3 17.8 0 33.5 9.3 41.4 23.4l-24 13.9c-3.1-6.4-9.7-10.2-17.8-10.2-11.9 0-20.7 8.6-20.7 21.2S858 102 869.9 102c8 0 14.8-3.8 17.8-10.2l24 13.7c-7.9 14.3-23.4 23.6-41.4 23.6-27.9 0-48.6-21.1-48.6-48.3z"/></g></svg>